<svg width="133" height="136" viewBox="0 0 133 136" fill="none" xmlns="http://www.w3.org/2000/svg">
<path d="M75.8109 1.5883L60.9499 34.3791C60.6912 34.9499 59.9773 35.1448 59.4644 34.7846L27.5811 12.3946C26.8265 11.8648 25.8179 12.5515 26.0343 13.4477L34.3812 48.0185C34.5108 48.5554 34.1807 49.0957 33.6438 49.2253L1.76767 56.9216C0.848792 57.1434 0.722274 58.3985 1.57839 58.7993L35.1446 74.5128C35.725 74.7845 35.9036 75.5243 35.5111 76.0309L13.0537 105.018C12.4509 105.796 13.2166 106.885 14.1528 106.582L49.7684 95.0282C50.3694 94.8333 50.9983 95.2376 51.0705 95.8652L55.3755 133.317C55.4873 134.289 56.7844 134.539 57.2491 133.677L75.2799 100.259C75.5736 99.7142 76.2863 99.5644 76.7744 99.9445L105.034 121.952C105.812 122.557 106.904 121.792 106.6 120.854L95.0358 85.2051C94.8459 84.6198 95.2246 84.0036 95.8325 83.9085L130.425 78.4989C131.39 78.348 131.589 77.0455 130.713 76.6139L98.5934 60.7872C98.0332 60.5111 97.8603 59.7949 98.2328 59.2936L119.829 30.2354C120.387 29.4848 119.701 28.4473 118.792 28.6668L83.1983 37.2607C82.6176 37.4009 82.0442 37.004 81.9711 36.411L77.7142 1.87874C77.5907 0.876179 76.2279 0.668227 75.8109 1.5883Z" fill="#D3638C" stroke="#A72656" stroke-width="2"/>
</svg>
